<svg width="13" height="13" viewBox="0 0 13 13" fill="none" xmlns="http://www.w3.org/2000/svg">
<path fill-rule="evenodd" clip-rule="evenodd" d="M11.9802 11.733C12.3707 11.3424 12.3707 10.7093 11.9802 10.3188L8.26785 6.60645L11.9802 2.89413C12.3707 2.50361 12.3707 1.87045 11.9802 1.47992L11.6266 1.12637C11.2361 0.735843 10.6029 0.735844 10.2124 1.12637L6.50009 4.83868L2.78778 1.12637C2.39725 0.735844 1.76409 0.735844 1.37356 1.12637L1.02001 1.47992C0.629486 1.87045 0.629486 2.50361 1.02001 2.89413L4.73232 6.60645L1.02001 10.3188C0.629487 10.7093 0.629486 11.3424 1.02001 11.733L1.37356 12.0865C1.76409 12.477 2.39725 12.477 2.78778 12.0865L6.50009 8.37421L10.2124 12.0865C10.6029 12.477 11.2361 12.477 11.6266 12.0865L11.9802 11.733Z" fill="white"/>
</svg>
