<svg width="6" height="11" viewBox="0 0 6 11" fill="none" xmlns="http://www.w3.org/2000/svg">
<path d="M4.98031 0.965351C4.93701 0.922044 4.87926 0.900391 4.80709 0.900391C4.73491 0.900391 4.66995 0.922044 4.6122 0.965351L0.0866141 5.5126C0.0288711 5.5559 0 5.61365 0 5.68582C0 5.758 0.0288711 5.81574 0.0866141 5.85905L4.6122 10.4063C4.66995 10.4496 4.73491 10.4713 4.80709 10.4713C4.87926 10.4713 4.93701 10.4496 4.98031 10.4063L5.41339 9.97323C5.47113 9.92992 5.5 9.87218 5.5 9.8C5.5 9.72782 5.47113 9.66286 5.41339 9.60511L1.49409 5.68582L5.41339 1.76653C5.47113 1.70879 5.5 1.64383 5.5 1.57165C5.5 1.49947 5.47113 1.44173 5.41339 1.39842L4.98031 0.965351Z" fill="#181818"/>
</svg>
