<svg width="13" height="14" viewBox="0 0 13 14" fill="none" xmlns="http://www.w3.org/2000/svg">
<path fill-rule="evenodd" clip-rule="evenodd" d="M9.5875 11.9979C8.75694 12.8104 7.89028 13.3972 6.9875 13.7583C6.6625 13.9028 6.3375 13.9028 6.0125 13.7583C4.98333 13.3431 4.03542 12.675 3.16875 11.7542C2.21181 10.7611 1.4625 9.59653 0.920833 8.26042C0.306944 6.76181 0 5.16389 0 3.46667C0 3.19583 0.0722224 2.95208 0.216667 2.73542C0.361111 2.51875 0.559722 2.36528 0.8125 2.275L6.0125 0.108333C6.3375 -0.0361111 6.6625 -0.0361111 6.9875 0.108333L12.1875 2.275C12.4403 2.36528 12.6389 2.51875 12.7833 2.73542C12.9278 2.95208 13 3.19583 13 3.46667C13 5.32639 12.6569 7.03264 11.9708 8.58542C11.375 9.88542 10.5806 11.0229 9.5875 11.9979ZM5.33542 10.3458C5.40764 10.4361 5.50694 10.4812 5.63333 10.4812C5.75972 10.4812 5.85903 10.4361 5.93125 10.3458L10.9146 5.3625C11.0049 5.27222 11.05 5.1684 11.05 5.05104C11.05 4.93368 11.0049 4.82986 10.9146 4.73958L10.3188 4.14375C10.2285 4.05347 10.1247 4.00833 10.0073 4.00833C9.88993 4.00833 9.78611 4.05347 9.69583 4.14375L5.63333 8.20625L3.7375 6.31042C3.64722 6.22014 3.5434 6.175 3.42604 6.175C3.30868 6.175 3.20486 6.22014 3.11458 6.31042L2.51875 6.90625C2.42847 6.99653 2.38333 7.10035 2.38333 7.21771C2.38333 7.33507 2.42847 7.43889 2.51875 7.52917L5.33542 10.3458Z" fill="#171717"/>
</svg>
