<svg width="13" height="14" viewBox="0 0 13 14" fill="none" xmlns="http://www.w3.org/2000/svg">
<path fill-rule="evenodd" clip-rule="evenodd" d="M6.5 13.9688C7.6707 13.9688 8.75403 13.6761 9.75 13.0907C10.746 12.5054 11.5366 11.7147 12.122 10.7188C12.7073 9.72278 13 8.63945 13 7.46875C13 6.29805 12.7073 5.21472 12.122 4.21875C11.5366 3.22278 10.746 2.43212 9.75 1.84677C8.75403 1.26142 7.6707 0.96875 6.5 0.96875C5.3293 0.96875 4.24597 1.26142 3.25 1.84677C2.25403 2.43212 1.46337 3.22278 0.878024 4.21875C0.292675 5.21472 0 6.29805 0 7.46875C0 8.63945 0.292675 9.72278 0.878024 10.7188C1.46337 11.7147 2.25403 12.5054 3.25 13.0907C4.24597 13.6761 5.3293 13.9688 6.5 13.9688ZM7.23387 8.93649H5.76613C5.67876 8.93649 5.6045 8.90591 5.54335 8.84476C5.48219 8.7836 5.45161 8.70934 5.45161 8.62198V8.51714C5.45161 8.06284 5.60887 7.66969 5.92339 7.3377C6.09812 7.1455 6.4039 6.92708 6.84073 6.68246L6.89315 6.65625C7.19019 6.48152 7.39113 6.35047 7.49597 6.2631C7.65323 6.12332 7.73185 5.95732 7.73185 5.76512C7.73185 5.5205 7.60518 5.31519 7.35181 5.14919C7.09845 4.9832 6.82325 4.9002 6.52621 4.9002C6.21169 4.9002 5.93212 4.98757 5.6875 5.1623C5.53024 5.28461 5.31183 5.51176 5.03226 5.84375C4.97984 5.91364 4.90995 5.95296 4.82258 5.96169C4.73522 5.97043 4.66532 5.94859 4.6129 5.89617L3.69556 5.21472C3.62567 5.1623 3.58199 5.09677 3.56452 5.01815C3.54704 4.93952 3.56452 4.86526 3.61694 4.79536C3.98387 4.23622 4.40323 3.8256 4.875 3.56351C5.38172 3.26647 5.98454 3.11794 6.68347 3.11794C7.17272 3.11794 7.65323 3.23589 8.125 3.47177C8.59677 3.70766 8.98118 4.03091 9.27823 4.44153C9.57527 4.85215 9.72379 5.30208 9.72379 5.79133C9.72379 6.35047 9.5578 6.81351 9.22581 7.18044C9.0336 7.39012 8.71035 7.63474 8.25605 7.91431C8.01143 8.0541 7.84543 8.15894 7.75806 8.22883C7.61828 8.33367 7.54839 8.45598 7.54839 8.59577V8.62198C7.54839 8.70934 7.51781 8.7836 7.45665 8.84476C7.3955 8.90591 7.32124 8.93649 7.23387 8.93649ZM5.64819 11.6754C5.88407 11.9113 6.16801 12.0292 6.5 12.0292C6.83199 12.0292 7.11593 11.9113 7.35181 11.6754C7.5877 11.4395 7.70565 11.1556 7.70565 10.8236C7.70565 10.4916 7.5877 10.2077 7.35181 9.97177C7.11593 9.73589 6.83199 9.61794 6.5 9.61794C6.16801 9.61794 5.88407 9.73589 5.64819 9.97177C5.4123 10.2077 5.29435 10.4916 5.29435 10.8236C5.29435 11.1556 5.4123 11.4395 5.64819 11.6754Z" fill="#171717"/>
</svg>
