<svg width="15" height="17" viewBox="0 0 15 17" fill="none" xmlns="http://www.w3.org/2000/svg">
<path fill-rule="evenodd" clip-rule="evenodd" d="M3.56117 4.65032C3.56117 6.85911 5.35354 8.65148 7.56233 8.65148C9.77111 8.65148 11.5635 6.85911 11.5635 4.65032C11.5635 2.44154 9.77111 0.64917 7.56233 0.64917C5.35354 0.64917 3.56117 2.44154 3.56117 4.65032ZM0.589545 11.0984C0.432945 11.3629 0.276345 11.6478 0.158895 11.9327C0.119745 12.0548 0.119745 12.1769 0.178471 12.299C0.335071 12.5839 0.511245 12.8485 0.68742 13.0926C0.941895 13.4589 1.23552 13.8049 1.54872 14.1101C1.82277 14.3747 2.11639 14.6392 2.42959 14.8834C3.91729 16.0433 5.69862 16.6538 7.55824 16.6538C9.41786 16.6538 11.1992 16.0433 12.6869 14.8834C13.0001 14.6392 13.2937 14.395 13.5678 14.1101C13.881 13.8049 14.1746 13.4589 14.4291 13.0926C14.6052 12.8485 14.7814 12.5636 14.938 12.299C14.9967 12.1973 15.0163 12.0548 14.9576 11.9327C14.8401 11.6478 14.7031 11.3629 14.5269 11.0984C13.6656 9.75534 12.315 8.88032 10.8077 8.65648C10.6119 8.63613 10.4162 8.67683 10.2596 8.79892C9.47659 9.38906 8.53699 9.71465 7.55824 9.71465C6.57949 9.71465 5.63989 9.38906 4.85689 8.79892C4.70029 8.67683 4.50454 8.63613 4.30879 8.65648C2.80152 8.88032 1.45084 9.77569 0.589545 11.0984Z" fill="white"/>
</svg>
