<svg width="17" height="17" viewBox="0 0 17 17" fill="none" xmlns="http://www.w3.org/2000/svg">
<path fill-rule="evenodd" clip-rule="evenodd" d="M16.5 14.875C16.5 14.6666 16.427 14.4895 16.2812 14.3437L13.1562 11.2187C13.0104 11.0729 12.8333 11 12.625 11H12.125C13.0416 9.83331 13.5 8.49998 13.5 6.99998C13.5 5.81249 13.2083 4.72395 12.625 3.73437C12.0416 2.74479 11.2552 1.95833 10.2656 1.375C9.27602 0.791666 8.18748 0.5 6.99998 0.5C5.81249 0.5 4.72395 0.791666 3.73437 1.375C2.74479 1.95833 1.95833 2.74479 1.375 3.73437C0.791666 4.72395 0.5 5.81249 0.5 6.99998C0.5 8.18748 0.791666 9.27602 1.375 10.2656C1.95833 11.2552 2.74479 12.0416 3.73437 12.625C4.72395 13.2083 5.81249 13.5 6.99998 13.5C8.49998 13.5 9.83331 13.0416 11 12.125V12.625C11 12.8333 11.0729 13.0104 11.2187 13.1562L14.3437 16.2812C14.4895 16.427 14.6666 16.5 14.875 16.5C15.0833 16.5 15.2604 16.427 15.4062 16.2812L16.2812 15.4062C16.427 15.2604 16.5 15.0833 16.5 14.875ZM9.0156 10.4687C8.40102 10.8229 7.72915 11 6.99998 11C6.27082 11 5.59894 10.8229 4.98436 10.4687C4.36978 10.1146 3.88541 9.63018 3.53124 9.0156C3.17708 8.40102 2.99999 7.72915 2.99999 6.99998C2.99999 6.27082 3.17708 5.59894 3.53124 4.98436C3.88541 4.36978 4.36978 3.88541 4.98436 3.53124C5.59894 3.17708 6.27082 2.99999 6.99998 2.99999C7.72915 2.99999 8.40102 3.17708 9.0156 3.53124C9.63018 3.88541 10.1146 4.36978 10.4687 4.98436C10.8229 5.59894 11 6.27082 11 6.99998C11 7.72915 10.8229 8.40102 10.4687 9.0156C10.1146 9.63018 9.63018 10.1146 9.0156 10.4687Z" fill="#171717"/>
</svg>
