<svg width="15" height="17" viewBox="0 0 15 17" fill="none" xmlns="http://www.w3.org/2000/svg">
<path fill-rule="evenodd" clip-rule="evenodd" d="M10.9603 13.9275C10.0108 14.8564 9.02006 15.5272 7.98802 15.94C7.61648 16.1051 7.24495 16.1051 6.87341 15.94C5.69688 15.4653 4.61324 14.7016 3.62247 13.6489C2.52851 12.5136 1.67191 11.1823 1.05268 9.65487C0.350895 7.94168 0 6.11496 0 4.17472C0 3.86511 0.0825637 3.58645 0.247691 3.33876C0.412817 3.09107 0.639867 2.91562 0.92884 2.81242L6.87341 0.335515C7.24495 0.170388 7.61648 0.170388 7.98802 0.335515L13.9326 2.81242C14.2216 2.91562 14.4486 3.09107 14.6137 3.33876C14.7789 3.58645 14.8614 3.86511 14.8614 4.17472C14.8614 6.30073 14.4693 8.25129 13.6849 10.0264C13.0038 11.5126 12.0956 12.8129 10.9603 13.9275ZM6.09938 12.0389C6.18194 12.1421 6.29547 12.1937 6.43995 12.1937C6.58444 12.1937 6.69796 12.1421 6.78053 12.0389L12.4774 6.34201C12.5806 6.23881 12.6322 6.12012 12.6322 5.98596C12.6322 5.85179 12.5806 5.7331 12.4774 5.6299L11.7963 4.94875C11.6931 4.84555 11.5744 4.79394 11.4402 4.79394C11.306 4.79394 11.1874 4.84555 11.0842 4.94875L6.43995 9.59295L4.27266 7.42566C4.16946 7.32245 4.05077 7.27085 3.91661 7.27085C3.78244 7.27085 3.66376 7.32245 3.56055 7.42566L2.8794 8.10681C2.7762 8.21001 2.7246 8.3287 2.7246 8.46286C2.7246 8.59703 2.7762 8.71571 2.8794 8.81892L6.09938 12.0389Z" fill="white"/>
</svg>
