<svg width="48" height="22" viewBox="0 0 48 22" fill="none" xmlns="http://www.w3.org/2000/svg">
<rect y="4" width="22" height="14.6667" fill="white"/>
<path fill-rule="evenodd" clip-rule="evenodd" d="M22 4H0V4.97778H22V4ZM22 5.95556H0V6.93333H22V5.95556ZM0 7.91111H22V8.88889H0V7.91111ZM22 9.86667H0V10.8444H22V9.86667ZM0 11.8222H22V12.8H0V11.8222ZM22 13.7778H0V14.7556H22V13.7778ZM0 15.7333H22V16.7111H0V15.7333ZM22 17.6889H0V18.6667H22V17.6889Z" fill="#D02F44"/>
<rect y="4" width="8.8" height="6.84444" fill="#46467F"/>
<g filter="url(#filter0_d_2_1556)">
<path fill-rule="evenodd" clip-rule="evenodd" d="M1.46667 5.95556C1.73668 5.95556 1.95556 5.73668 1.95556 5.46667C1.95556 5.19667 1.73668 4.97778 1.46667 4.97778C1.19667 4.97778 0.977783 5.19667 0.977783 5.46667C0.977783 5.73668 1.19667 5.95556 1.46667 5.95556ZM3.42223 5.95556C3.69223 5.95556 3.91112 5.73668 3.91112 5.46667C3.91112 5.19667 3.69223 4.97778 3.42223 4.97778C3.15222 4.97778 2.93334 5.19667 2.93334 5.46667C2.93334 5.73668 3.15222 5.95556 3.42223 5.95556ZM5.86667 5.46667C5.86667 5.73668 5.64779 5.95556 5.37778 5.95556C5.10778 5.95556 4.88889 5.73668 4.88889 5.46667C4.88889 5.19667 5.10778 4.97778 5.37778 4.97778C5.64779 4.97778 5.86667 5.19667 5.86667 5.46667ZM7.33334 5.95556C7.60334 5.95556 7.82223 5.73668 7.82223 5.46667C7.82223 5.19667 7.60334 4.97778 7.33334 4.97778C7.06333 4.97778 6.84445 5.19667 6.84445 5.46667C6.84445 5.73668 7.06333 5.95556 7.33334 5.95556ZM2.93334 6.44445C2.93334 6.71446 2.71446 6.93334 2.44445 6.93334C2.17444 6.93334 1.95556 6.71446 1.95556 6.44445C1.95556 6.17444 2.17444 5.95556 2.44445 5.95556C2.71446 5.95556 2.93334 6.17444 2.93334 6.44445ZM4.40001 6.93334C4.67001 6.93334 4.88889 6.71446 4.88889 6.44445C4.88889 6.17444 4.67001 5.95556 4.40001 5.95556C4.13 5.95556 3.91112 6.17444 3.91112 6.44445C3.91112 6.71446 4.13 6.93334 4.40001 6.93334ZM6.84445 6.44445C6.84445 6.71446 6.62557 6.93334 6.35556 6.93334C6.08556 6.93334 5.86667 6.71446 5.86667 6.44445C5.86667 6.17444 6.08556 5.95556 6.35556 5.95556C6.62557 5.95556 6.84445 6.17444 6.84445 6.44445ZM7.33334 7.91112C7.60334 7.91112 7.82223 7.69223 7.82223 7.42223C7.82223 7.15222 7.60334 6.93334 7.33334 6.93334C7.06333 6.93334 6.84445 7.15222 6.84445 7.42223C6.84445 7.69223 7.06333 7.91112 7.33334 7.91112ZM5.86667 7.42223C5.86667 7.69223 5.64779 7.91112 5.37778 7.91112C5.10778 7.91112 4.88889 7.69223 4.88889 7.42223C4.88889 7.15222 5.10778 6.93334 5.37778 6.93334C5.64779 6.93334 5.86667 7.15222 5.86667 7.42223ZM3.42223 7.91112C3.69223 7.91112 3.91112 7.69223 3.91112 7.42223C3.91112 7.15222 3.69223 6.93334 3.42223 6.93334C3.15222 6.93334 2.93334 7.15222 2.93334 7.42223C2.93334 7.69223 3.15222 7.91112 3.42223 7.91112ZM1.95556 7.42223C1.95556 7.69223 1.73668 7.91112 1.46667 7.91112C1.19667 7.91112 0.977783 7.69223 0.977783 7.42223C0.977783 7.15222 1.19667 6.93334 1.46667 6.93334C1.73668 6.93334 1.95556 7.15222 1.95556 7.42223ZM2.44445 8.88889C2.71446 8.88889 2.93334 8.67001 2.93334 8.40001C2.93334 8.13 2.71446 7.91112 2.44445 7.91112C2.17444 7.91112 1.95556 8.13 1.95556 8.40001C1.95556 8.67001 2.17444 8.88889 2.44445 8.88889ZM4.88889 8.40001C4.88889 8.67001 4.67001 8.88889 4.40001 8.88889C4.13 8.88889 3.91112 8.67001 3.91112 8.40001C3.91112 8.13 4.13 7.91112 4.40001 7.91112C4.67001 7.91112 4.88889 8.13 4.88889 8.40001ZM6.35556 8.88889C6.62557 8.88889 6.84445 8.67001 6.84445 8.40001C6.84445 8.13 6.62557 7.91112 6.35556 7.91112C6.08556 7.91112 5.86667 8.13 5.86667 8.40001C5.86667 8.67001 6.08556 8.88889 6.35556 8.88889ZM7.82223 9.37778C7.82223 9.64779 7.60334 9.86667 7.33334 9.86667C7.06333 9.86667 6.84445 9.64779 6.84445 9.37778C6.84445 9.10778 7.06333 8.88889 7.33334 8.88889C7.60334 8.88889 7.82223 9.10778 7.82223 9.37778ZM5.37778 9.86667C5.64779 9.86667 5.86667 9.64779 5.86667 9.37778C5.86667 9.10778 5.64779 8.88889 5.37778 8.88889C5.10778 8.88889 4.88889 9.10778 4.88889 9.37778C4.88889 9.64779 5.10778 9.86667 5.37778 9.86667ZM3.91112 9.37778C3.91112 9.64779 3.69223 9.86667 3.42223 9.86667C3.15222 9.86667 2.93334 9.64779 2.93334 9.37778C2.93334 9.10778 3.15222 8.88889 3.42223 8.88889C3.69223 8.88889 3.91112 9.10778 3.91112 9.37778ZM1.46667 9.86667C1.73668 9.86667 1.95556 9.64779 1.95556 9.37778C1.95556 9.10778 1.73668 8.88889 1.46667 8.88889C1.19667 8.88889 0.977783 9.10778 0.977783 9.37778C0.977783 9.64779 1.19667 9.86667 1.46667 9.86667Z" fill="url(#paint0_linear_2_1556)"/>
</g>
<path d="M35.7635 16H30.215V6.361H35.7635V8.035H32.2535V10.1545H35.5205V11.8285H32.2535V14.3125H35.7635V16ZM46.3147 16H43.7227L39.5242 8.71H39.4702C39.4792 8.935 39.4882 9.1645 39.4972 9.3985C39.5062 9.6235 39.5152 9.853 39.5242 10.087C39.5422 10.312 39.5557 10.5415 39.5647 10.7755C39.5737 11.0005 39.5827 11.23 39.5917 11.464V16H37.7692V6.361H40.3477L44.5327 13.5835H44.5732C44.5642 13.3585 44.5552 13.138 44.5462 12.922C44.5372 12.697 44.5282 12.4765 44.5192 12.2605C44.5192 12.0355 44.5147 11.815 44.5057 11.599C44.4967 11.374 44.4877 11.149 44.4787 10.924V6.361H46.3147V16Z" fill="white"/>
<defs>
<filter id="filter0_d_2_1556" x="0.977783" y="4.97778" width="6.84448" height="5.88892" filterUnits="userSpaceOnUse" color-interpolation-filters="sRGB">
<feFlood flood-opacity="0" result="BackgroundImageFix"/>
<feColorMatrix in="SourceAlpha" type="matrix" values="0 0 0 0 0 0 0 0 0 0 0 0 0 0 0 0 0 0 127 0" result="hardAlpha"/>
<feOffset dy="1"/>
<feColorMatrix type="matrix" values="0 0 0 0 0 0 0 0 0 0 0 0 0 0 0 0 0 0 0.06 0"/>
<feBlend mode="normal" in2="BackgroundImageFix" result="effect1_dropShadow_2_1556"/>
<feBlend mode="normal" in="SourceGraphic" in2="effect1_dropShadow_2_1556" result="shape"/>
</filter>
<linearGradient id="paint0_linear_2_1556" x1="0.977783" y1="4.97778" x2="0.977783" y2="9.86667" gradientUnits="userSpaceOnUse">
<stop stop-color="white"/>
<stop offset="1" stop-color="#F0F0F0"/>
</linearGradient>
</defs>
</svg>
